<?xml version="1.0" standalone="no"?><!DOCTYPE svg PUBLIC "-//W3C//DTD SVG 1.1//EN" "http://www.w3.org/Graphics/SVG/1.1/DTD/svg11.dtd"><svg t="1697799475169" class="icon" viewBox="0 0 1024 1024" version="1.1" xmlns="http://www.w3.org/2000/svg" p-id="1264" xmlns:xlink="http://www.w3.org/1999/xlink" width="200" height="200"><path d="M512 512m-512 0a512 512 0 1 0 1024 0 512 512 0 1 0-1024 0Z" fill="#3494FD" p-id="1265"></path><path d="M324.408781 655.018925C505.290126 655.018925 651.918244 508.387706 651.918244 327.509463c0-152.138029-103.733293-280.047334-244.329811-316.853972C205.813923 52.463528 47.497011 213.017581 8.987325 415.981977 47.587706 553.880127 174.183098 655.018925 324.408781 655.018925z" fill="#FFFFFF" fill-opacity=".2" p-id="1266"></path><path d="M512 1024c282.766631 0 512-229.233369 512-512 0-31.765705-2.891385-62.853911-8.433853-93.018889C928.057169 336.0999 809.874701 285.26268 679.824375 285.26268c-269.711213 0-488.357305 218.645317-488.357305 488.357305 0 54.959576 9.084221 107.802937 25.822474 157.10377C300.626556 989.489417 402.283167 1024 512 1024z" fill="#FFFFFF" fill-opacity=".15" p-id="1267"></path><path d="M732.535958 756.566238c36.389596 0 65.889478-29.499882 65.889477-65.889478 0 36.389596 29.502983 65.889478 65.889478 65.889478-17.053747 0-65.889478 29.502983-65.889478 65.889477 0-36.386495-29.499882-65.889478-65.889477-65.889477zM159.685087 247.279334c25.686819 0 46.51022-20.8234 46.51022-46.51022 0 25.686819 20.8234 46.51022 46.510219 46.51022-12.03607 0-46.51022 20.8234-46.510219 46.510219 0-25.686819-20.8234-46.51022-46.51022-46.510219z" fill="#FFFFFF" fill-opacity=".5" p-id="1268"></path><path d="M206.195307 333.32324c8.562531 0 15.503407-6.940875 15.503406-15.503407 0 8.562531 6.940875 15.503407 15.503407 15.503407-4.012282 0-15.503407 6.940875-15.503407 15.503406 0-8.562531-6.940875-15.503407-15.503406-15.503406z" fill="#FFFFFF" fill-opacity=".3" p-id="1269"></path><path d="M300.727328 484.203167l3.244863-1.650337c7.228463-52.253456 41.32433-86.747761 94.545199-92.895637 19.467628-2.219313 37.169417 0.740288 57.832357 8.766401 24.64654-37.283367 64.71897-56.97812 111.166401-62.840733C534.160569 285.60608 477.2964 252.705526 412.691379 252.705526c-102.799988 0-186.074986 83.275773-186.074985 186.017623 0 27.492966 5.976563 53.562719 16.620427 77.014722 18.61339-14.458477 33.412942-27.151891 57.490507-31.534704z" fill="#FFFFFF" opacity=".6" p-id="1270"></path><path d="M220.923543 638.0644c0 73.826447 59.767182 133.593629 133.593629 133.593629h315.740826c73.826447 0 133.593629-59.767182 133.59363-133.593629 0-56.693632-35.347767-105.019301-85.096648-124.486153l0.11395-3.016963c0-77.127897-62.556245-139.62678-139.627555-139.62678-48.781469 0-91.699549 25.044978-116.68794 62.89732-13.490289-9.107476-29.769641-14.343752-47.244306-14.343751-47.073768 0-85.097423 38.02288-85.097423 84.982698v2.220087C268.053899 518.07501 220.923543 572.605142 220.923543 638.0644z" fill="#FFFFFF" p-id="1271"></path></svg>