<?xml version="1.0" standalone="no"?><!DOCTYPE svg PUBLIC "-//W3C//DTD SVG 1.1//EN" "http://www.w3.org/Graphics/SVG/1.1/DTD/svg11.dtd"><svg t="1697799467481" class="icon" viewBox="0 0 1024 1024" version="1.1" xmlns="http://www.w3.org/2000/svg" p-id="1105" xmlns:xlink="http://www.w3.org/1999/xlink" width="200" height="200"><path d="M512 512m-512 0a512 512 0 1 0 1024 0 512 512 0 1 0-1024 0Z" fill="#5D49FE" p-id="1106"></path><path d="M324.408781 655.018925C505.290126 655.018925 651.918244 508.387706 651.918244 327.509463c0-152.138029-103.733293-280.047334-244.329811-316.853972C205.813923 52.463528 47.497011 213.017581 8.987325 415.981977 47.587706 553.880127 174.183098 655.018925 324.408781 655.018925z" fill="#FFFFFF" fill-opacity=".2" p-id="1107"></path><path d="M512 1024c282.766631 0 512-229.233369 512-512 0-31.765705-2.891385-62.853911-8.433853-93.018889C928.057169 336.0999 809.874701 285.26268 679.824375 285.26268c-269.711213 0-488.357305 218.645317-488.357305 488.357305 0 54.959576 9.084221 107.802937 25.822474 157.10377C300.626556 989.489417 402.283167 1024 512 1024z" fill="#FFFFFF" fill-opacity=".15" p-id="1108"></path><path d="M732.535958 756.566238c36.389596 0 65.889478-29.499882 65.889477-65.889478 0 36.389596 29.502983 65.889478 65.889478 65.889478-17.053747 0-65.889478 29.502983-65.889478 65.889477 0-36.386495-29.499882-65.889478-65.889477-65.889477zM159.685087 247.279334c25.686819 0 46.51022-20.8234 46.51022-46.51022 0 25.686819 20.8234 46.51022 46.510219 46.51022-12.03607 0-46.51022 20.8234-46.510219 46.510219 0-25.686819-20.8234-46.51022-46.51022-46.510219z" fill="#FFFFFF" fill-opacity=".5" p-id="1109"></path><path d="M206.195307 333.32324c8.562531 0 15.503407-6.940875 15.503406-15.503407 0 8.562531 6.940875 15.503407 15.503407 15.503407-4.012282 0-15.503407 6.940875-15.503407 15.503406 0-8.562531-6.940875-15.503407-15.503406-15.503406z" fill="#FFFFFF" fill-opacity=".3" p-id="1110"></path><path d="M512.387585 806.952309c163.11289 0 295.339894-132.227004 295.339894-295.339894S675.500475 216.272521 512.387585 216.272521 217.047691 348.499525 217.047691 511.612415s132.227004 295.339894 295.339894 295.339894zM418.240824 389.12L610.198577 372.081756l6.516082 218.691828a38.619761 38.619761 0 0 1-2.416206 17.120411 38.472478 38.472478 0 0 1-3.179749 6.428488 38.540693 38.540693 0 0 1-18.537423 15.56697 38.533717 38.533717 0 0 1-44.421136-11.800417 38.510462 38.510462 0 0 1-8.368738-22.712491 38.518213 38.518213 0 0 1 6.824599-23.221777 38.540693 38.540693 0 0 1 43.530465-14.749941L586.943467 451.536715l-140.772481 12.49342 4.178943 141.511219a38.566274 38.566274 0 0 1-5.559522 23.545798 38.584878 38.584878 0 0 1-18.50099 15.597202 38.509687 38.509687 0 0 1-13.911207 2.761157 38.537593 38.537593 0 0 1-10.240775-1.265078 38.558522 38.558522 0 0 1-20.281556-13.193399 38.584103 38.584103 0 0 1-8.423776-22.683034 38.564724 38.564724 0 0 1 6.75871-23.230304 38.538368 38.538368 0 0 1 43.4638-14.891797l-5.413789-183.061899z" fill="#FFFFFF" p-id="1111"></path></svg>